<?xml version="1.0" encoding="UTF-8"?>
<!DOCTYPE svg PUBLIC "-//W3C//DTD SVG 1.1//EN" "http://www.w3.org/Graphics/SVG/1.1/DTD/svg11.dtd">
<svg xmlns="http://www.w3.org/2000/svg" version="1.1" viewBox="0 0 41 41" stroke="none">
	<rect width="100%" height="100%" fill="#FFFFFF"/>
	<path d="M4,4h1v1h-1z M5,4h1v1h-1z M6,4h1v1h-1z M7,4h1v1h-1z M8,4h1v1h-1z M9,4h1v1h-1z M10,4h1v1h-1z M12,4h1v1h-1z M15,4h1v1h-1z M17,4h1v1h-1z M20,4h1v1h-1z M23,4h1v1h-1z M24,4h1v1h-1z M26,4h1v1h-1z M30,4h1v1h-1z M31,4h1v1h-1z M32,4h1v1h-1z M33,4h1v1h-1z M34,4h1v1h-1z M35,4h1v1h-1z M36,4h1v1h-1z M4,5h1v1h-1z M10,5h1v1h-1z M12,5h1v1h-1z M13,5h1v1h-1z M17,5h1v1h-1z M19,5h1v1h-1z M20,5h1v1h-1z M22,5h1v1h-1z M24,5h1v1h-1z M25,5h1v1h-1z M26,5h1v1h-1z M27,5h1v1h-1z M30,5h1v1h-1z M36,5h1v1h-1z M4,6h1v1h-1z M6,6h1v1h-1z M7,6h1v1h-1z M8,6h1v1h-1z M10,6h1v1h-1z M13,6h1v1h-1z M14,6h1v1h-1z M16,6h1v1h-1z M17,6h1v1h-1z M22,6h1v1h-1z M26,6h1v1h-1z M30,6h1v1h-1z M32,6h1v1h-1z M33,6h1v1h-1z M34,6h1v1h-1z M36,6h1v1h-1z M4,7h1v1h-1z M6,7h1v1h-1z M7,7h1v1h-1z M8,7h1v1h-1z M10,7h1v1h-1z M12,7h1v1h-1z M17,7h1v1h-1z M20,7h1v1h-1z M21,7h1v1h-1z M24,7h1v1h-1z M25,7h1v1h-1z M26,7h1v1h-1z M27,7h1v1h-1z M28,7h1v1h-1z M30,7h1v1h-1z M32,7h1v1h-1z M33,7h1v1h-1z M34,7h1v1h-1z M36,7h1v1h-1z M4,8h1v1h-1z M6,8h1v1h-1z M7,8h1v1h-1z M8,8h1v1h-1z M10,8h1v1h-1z M12,8h1v1h-1z M17,8h1v1h-1z M18,8h1v1h-1z M22,8h1v1h-1z M23,8h1v1h-1z M25,8h1v1h-1z M30,8h1v1h-1z M32,8h1v1h-1z M33,8h1v1h-1z M34,8h1v1h-1z M36,8h1v1h-1z M4,9h1v1h-1z M10,9h1v1h-1z M12,9h1v1h-1z M13,9h1v1h-1z M15,9h1v1h-1z M16,9h1v1h-1z M18,9h1v1h-1z M20,9h1v1h-1z M22,9h1v1h-1z M23,9h1v1h-1z M24,9h1v1h-1z M25,9h1v1h-1z M28,9h1v1h-1z M30,9h1v1h-1z M36,9h1v1h-1z M4,10h1v1h-1z M5,10h1v1h-1z M6,10h1v1h-1z M7,10h1v1h-1z M8,10h1v1h-1z M9,10h1v1h-1z M10,10h1v1h-1z M12,10h1v1h-1z M14,10h1v1h-1z M16,10h1v1h-1z M18,10h1v1h-1z M20,10h1v1h-1z M22,10h1v1h-1z M24,10h1v1h-1z M26,10h1v1h-1z M28,10h1v1h-1z M30,10h1v1h-1z M31,10h1v1h-1z M32,10h1v1h-1z M33,10h1v1h-1z M34,10h1v1h-1z M35,10h1v1h-1z M36,10h1v1h-1z M14,11h1v1h-1z M18,11h1v1h-1z M19,11h1v1h-1z M24,11h1v1h-1z M25,11h1v1h-1z M27,11h1v1h-1z M7,12h1v1h-1z M10,12h1v1h-1z M13,12h1v1h-1z M16,12h1v1h-1z M18,12h1v1h-1z M20,12h1v1h-1z M27,12h1v1h-1z M28,12h1v1h-1z M31,12h1v1h-1z M32,12h1v1h-1z M33,12h1v1h-1z M35,12h1v1h-1z M36,12h1v1h-1z M4,13h1v1h-1z M5,13h1v1h-1z M6,13h1v1h-1z M8,13h1v1h-1z M9,13h1v1h-1z M12,13h1v1h-1z M13,13h1v1h-1z M16,13h1v1h-1z M18,13h1v1h-1z M20,13h1v1h-1z M23,13h1v1h-1z M24,13h1v1h-1z M26,13h1v1h-1z M28,13h1v1h-1z M29,13h1v1h-1z M30,13h1v1h-1z M33,13h1v1h-1z M36,13h1v1h-1z M5,14h1v1h-1z M7,14h1v1h-1z M8,14h1v1h-1z M9,14h1v1h-1z M10,14h1v1h-1z M11,14h1v1h-1z M15,14h1v1h-1z M16,14h1v1h-1z M21,14h1v1h-1z M25,14h1v1h-1z M28,14h1v1h-1z M30,14h1v1h-1z M31,14h1v1h-1z M33,14h1v1h-1z M36,14h1v1h-1z M6,15h1v1h-1z M7,15h1v1h-1z M11,15h1v1h-1z M12,15h1v1h-1z M13,15h1v1h-1z M15,15h1v1h-1z M18,15h1v1h-1z M21,15h1v1h-1z M23,15h1v1h-1z M24,15h1v1h-1z M25,15h1v1h-1z M29,15h1v1h-1z M30,15h1v1h-1z M33,15h1v1h-1z M6,16h1v1h-1z M8,16h1v1h-1z M10,16h1v1h-1z M11,16h1v1h-1z M12,16h1v1h-1z M16,16h1v1h-1z M17,16h1v1h-1z M19,16h1v1h-1z M23,16h1v1h-1z M24,16h1v1h-1z M27,16h1v1h-1z M29,16h1v1h-1z M30,16h1v1h-1z M31,16h1v1h-1z M35,16h1v1h-1z M5,17h1v1h-1z M6,17h1v1h-1z M7,17h1v1h-1z M8,17h1v1h-1z M13,17h1v1h-1z M14,17h1v1h-1z M17,17h1v1h-1z M18,17h1v1h-1z M24,17h1v1h-1z M25,17h1v1h-1z M26,17h1v1h-1z M28,17h1v1h-1z M30,17h1v1h-1z M32,17h1v1h-1z M33,17h1v1h-1z M35,17h1v1h-1z M36,17h1v1h-1z M6,18h1v1h-1z M7,18h1v1h-1z M9,18h1v1h-1z M10,18h1v1h-1z M11,18h1v1h-1z M12,18h1v1h-1z M16,18h1v1h-1z M17,18h1v1h-1z M20,18h1v1h-1z M21,18h1v1h-1z M23,18h1v1h-1z M24,18h1v1h-1z M25,18h1v1h-1z M27,18h1v1h-1z M28,18h1v1h-1z M30,18h1v1h-1z M31,18h1v1h-1z M32,18h1v1h-1z M4,19h1v1h-1z M6,19h1v1h-1z M7,19h1v1h-1z M9,19h1v1h-1z M11,19h1v1h-1z M12,19h1v1h-1z M13,19h1v1h-1z M14,19h1v1h-1z M15,19h1v1h-1z M17,19h1v1h-1z M18,19h1v1h-1z M19,19h1v1h-1z M21,19h1v1h-1z M22,19h1v1h-1z M24,19h1v1h-1z M25,19h1v1h-1z M29,19h1v1h-1z M31,19h1v1h-1z M35,19h1v1h-1z M36,19h1v1h-1z M6,20h1v1h-1z M8,20h1v1h-1z M10,20h1v1h-1z M13,20h1v1h-1z M16,20h1v1h-1z M18,20h1v1h-1z M20,20h1v1h-1z M23,20h1v1h-1z M26,20h1v1h-1z M28,20h1v1h-1z M30,20h1v1h-1z M31,20h1v1h-1z M32,20h1v1h-1z M33,20h1v1h-1z M34,20h1v1h-1z M35,20h1v1h-1z M36,20h1v1h-1z M4,21h1v1h-1z M5,21h1v1h-1z M6,21h1v1h-1z M7,21h1v1h-1z M9,21h1v1h-1z M13,21h1v1h-1z M14,21h1v1h-1z M17,21h1v1h-1z M18,21h1v1h-1z M19,21h1v1h-1z M21,21h1v1h-1z M23,21h1v1h-1z M25,21h1v1h-1z M28,21h1v1h-1z M30,21h1v1h-1z M31,21h1v1h-1z M7,22h1v1h-1z M9,22h1v1h-1z M10,22h1v1h-1z M12,22h1v1h-1z M15,22h1v1h-1z M16,22h1v1h-1z M20,22h1v1h-1z M21,22h1v1h-1z M22,22h1v1h-1z M23,22h1v1h-1z M24,22h1v1h-1z M26,22h1v1h-1z M30,22h1v1h-1z M31,22h1v1h-1z M33,22h1v1h-1z M34,22h1v1h-1z M35,22h1v1h-1z M36,22h1v1h-1z M6,23h1v1h-1z M9,23h1v1h-1z M11,23h1v1h-1z M13,23h1v1h-1z M15,23h1v1h-1z M16,23h1v1h-1z M17,23h1v1h-1z M18,23h1v1h-1z M25,23h1v1h-1z M29,23h1v1h-1z M31,23h1v1h-1z M32,23h1v1h-1z M35,23h1v1h-1z M36,23h1v1h-1z M4,24h1v1h-1z M5,24h1v1h-1z M6,24h1v1h-1z M7,24h1v1h-1z M8,24h1v1h-1z M10,24h1v1h-1z M11,24h1v1h-1z M12,24h1v1h-1z M13,24h1v1h-1z M15,24h1v1h-1z M16,24h1v1h-1z M18,24h1v1h-1z M19,24h1v1h-1z M21,24h1v1h-1z M22,24h1v1h-1z M23,24h1v1h-1z M27,24h1v1h-1z M31,24h1v1h-1z M33,24h1v1h-1z M34,24h1v1h-1z M6,25h1v1h-1z M11,25h1v1h-1z M12,25h1v1h-1z M13,25h1v1h-1z M14,25h1v1h-1z M16,25h1v1h-1z M17,25h1v1h-1z M19,25h1v1h-1z M23,25h1v1h-1z M24,25h1v1h-1z M25,25h1v1h-1z M28,25h1v1h-1z M30,25h1v1h-1z M31,25h1v1h-1z M33,25h1v1h-1z M34,25h1v1h-1z M35,25h1v1h-1z M4,26h1v1h-1z M5,26h1v1h-1z M7,26h1v1h-1z M8,26h1v1h-1z M10,26h1v1h-1z M14,26h1v1h-1z M15,26h1v1h-1z M16,26h1v1h-1z M17,26h1v1h-1z M18,26h1v1h-1z M23,26h1v1h-1z M25,26h1v1h-1z M26,26h1v1h-1z M28,26h1v1h-1z M29,26h1v1h-1z M32,26h1v1h-1z M33,26h1v1h-1z M34,26h1v1h-1z M36,26h1v1h-1z M5,27h1v1h-1z M6,27h1v1h-1z M7,27h1v1h-1z M11,27h1v1h-1z M13,27h1v1h-1z M14,27h1v1h-1z M16,27h1v1h-1z M17,27h1v1h-1z M18,27h1v1h-1z M20,27h1v1h-1z M22,27h1v1h-1z M23,27h1v1h-1z M25,27h1v1h-1z M28,27h1v1h-1z M30,27h1v1h-1z M33,27h1v1h-1z M4,28h1v1h-1z M8,28h1v1h-1z M9,28h1v1h-1z M10,28h1v1h-1z M11,28h1v1h-1z M12,28h1v1h-1z M13,28h1v1h-1z M16,28h1v1h-1z M18,28h1v1h-1z M19,28h1v1h-1z M22,28h1v1h-1z M23,28h1v1h-1z M25,28h1v1h-1z M26,28h1v1h-1z M28,28h1v1h-1z M29,28h1v1h-1z M30,28h1v1h-1z M31,28h1v1h-1z M32,28h1v1h-1z M33,28h1v1h-1z M34,28h1v1h-1z M12,29h1v1h-1z M23,29h1v1h-1z M24,29h1v1h-1z M27,29h1v1h-1z M28,29h1v1h-1z M32,29h1v1h-1z M36,29h1v1h-1z M4,30h1v1h-1z M5,30h1v1h-1z M6,30h1v1h-1z M7,30h1v1h-1z M8,30h1v1h-1z M9,30h1v1h-1z M10,30h1v1h-1z M13,30h1v1h-1z M14,30h1v1h-1z M15,30h1v1h-1z M16,30h1v1h-1z M17,30h1v1h-1z M19,30h1v1h-1z M22,30h1v1h-1z M23,30h1v1h-1z M24,30h1v1h-1z M26,30h1v1h-1z M28,30h1v1h-1z M30,30h1v1h-1z M32,30h1v1h-1z M33,30h1v1h-1z M35,30h1v1h-1z M4,31h1v1h-1z M10,31h1v1h-1z M14,31h1v1h-1z M17,31h1v1h-1z M19,31h1v1h-1z M20,31h1v1h-1z M22,31h1v1h-1z M24,31h1v1h-1z M25,31h1v1h-1z M28,31h1v1h-1z M32,31h1v1h-1z M35,31h1v1h-1z M4,32h1v1h-1z M6,32h1v1h-1z M7,32h1v1h-1z M8,32h1v1h-1z M10,32h1v1h-1z M13,32h1v1h-1z M14,32h1v1h-1z M17,32h1v1h-1z M19,32h1v1h-1z M21,32h1v1h-1z M22,32h1v1h-1z M23,32h1v1h-1z M28,32h1v1h-1z M29,32h1v1h-1z M30,32h1v1h-1z M31,32h1v1h-1z M32,32h1v1h-1z M34,32h1v1h-1z M36,32h1v1h-1z M4,33h1v1h-1z M6,33h1v1h-1z M7,33h1v1h-1z M8,33h1v1h-1z M10,33h1v1h-1z M12,33h1v1h-1z M14,33h1v1h-1z M18,33h1v1h-1z M22,33h1v1h-1z M23,33h1v1h-1z M24,33h1v1h-1z M30,33h1v1h-1z M32,33h1v1h-1z M34,33h1v1h-1z M35,33h1v1h-1z M4,34h1v1h-1z M6,34h1v1h-1z M7,34h1v1h-1z M8,34h1v1h-1z M10,34h1v1h-1z M14,34h1v1h-1z M16,34h1v1h-1z M18,34h1v1h-1z M23,34h1v1h-1z M24,34h1v1h-1z M28,34h1v1h-1z M29,34h1v1h-1z M30,34h1v1h-1z M32,34h1v1h-1z M36,34h1v1h-1z M4,35h1v1h-1z M10,35h1v1h-1z M13,35h1v1h-1z M16,35h1v1h-1z M19,35h1v1h-1z M21,35h1v1h-1z M23,35h1v1h-1z M25,35h1v1h-1z M26,35h1v1h-1z M27,35h1v1h-1z M29,35h1v1h-1z M32,35h1v1h-1z M4,36h1v1h-1z M5,36h1v1h-1z M6,36h1v1h-1z M7,36h1v1h-1z M8,36h1v1h-1z M9,36h1v1h-1z M10,36h1v1h-1z M13,36h1v1h-1z M14,36h1v1h-1z M15,36h1v1h-1z M19,36h1v1h-1z M21,36h1v1h-1z M22,36h1v1h-1z M23,36h1v1h-1z M24,36h1v1h-1z M25,36h1v1h-1z M26,36h1v1h-1z M28,36h1v1h-1z M30,36h1v1h-1z M31,36h1v1h-1z M32,36h1v1h-1z M33,36h1v1h-1z M35,36h1v1h-1z" fill="#000000"/>
</svg>
