<?xml version="1.0" encoding="UTF-8"?>
<!DOCTYPE svg PUBLIC "-//W3C//DTD SVG 1.1//EN" "http://www.w3.org/Graphics/SVG/1.1/DTD/svg11.dtd">
<svg xmlns="http://www.w3.org/2000/svg" version="1.1" viewBox="0 0 41 41" stroke="none">
	<rect width="100%" height="100%" fill="#FFFFFF"/>
	<path d="M4,4h1v1h-1z M5,4h1v1h-1z M6,4h1v1h-1z M7,4h1v1h-1z M8,4h1v1h-1z M9,4h1v1h-1z M10,4h1v1h-1z M12,4h1v1h-1z M14,4h1v1h-1z M15,4h1v1h-1z M18,4h1v1h-1z M23,4h1v1h-1z M24,4h1v1h-1z M26,4h1v1h-1z M30,4h1v1h-1z M31,4h1v1h-1z M32,4h1v1h-1z M33,4h1v1h-1z M34,4h1v1h-1z M35,4h1v1h-1z M36,4h1v1h-1z M4,5h1v1h-1z M10,5h1v1h-1z M12,5h1v1h-1z M13,5h1v1h-1z M14,5h1v1h-1z M15,5h1v1h-1z M20,5h1v1h-1z M21,5h1v1h-1z M22,5h1v1h-1z M23,5h1v1h-1z M25,5h1v1h-1z M27,5h1v1h-1z M30,5h1v1h-1z M36,5h1v1h-1z M4,6h1v1h-1z M6,6h1v1h-1z M7,6h1v1h-1z M8,6h1v1h-1z M10,6h1v1h-1z M13,6h1v1h-1z M14,6h1v1h-1z M15,6h1v1h-1z M16,6h1v1h-1z M20,6h1v1h-1z M21,6h1v1h-1z M22,6h1v1h-1z M23,6h1v1h-1z M30,6h1v1h-1z M32,6h1v1h-1z M33,6h1v1h-1z M34,6h1v1h-1z M36,6h1v1h-1z M4,7h1v1h-1z M6,7h1v1h-1z M7,7h1v1h-1z M8,7h1v1h-1z M10,7h1v1h-1z M12,7h1v1h-1z M17,7h1v1h-1z M26,7h1v1h-1z M30,7h1v1h-1z M32,7h1v1h-1z M33,7h1v1h-1z M34,7h1v1h-1z M36,7h1v1h-1z M4,8h1v1h-1z M6,8h1v1h-1z M7,8h1v1h-1z M8,8h1v1h-1z M10,8h1v1h-1z M12,8h1v1h-1z M15,8h1v1h-1z M16,8h1v1h-1z M18,8h1v1h-1z M20,8h1v1h-1z M21,8h1v1h-1z M22,8h1v1h-1z M26,8h1v1h-1z M27,8h1v1h-1z M30,8h1v1h-1z M32,8h1v1h-1z M33,8h1v1h-1z M34,8h1v1h-1z M36,8h1v1h-1z M4,9h1v1h-1z M10,9h1v1h-1z M12,9h1v1h-1z M14,9h1v1h-1z M15,9h1v1h-1z M17,9h1v1h-1z M18,9h1v1h-1z M19,9h1v1h-1z M21,9h1v1h-1z M22,9h1v1h-1z M25,9h1v1h-1z M26,9h1v1h-1z M28,9h1v1h-1z M30,9h1v1h-1z M36,9h1v1h-1z M4,10h1v1h-1z M5,10h1v1h-1z M6,10h1v1h-1z M7,10h1v1h-1z M8,10h1v1h-1z M9,10h1v1h-1z M10,10h1v1h-1z M12,10h1v1h-1z M14,10h1v1h-1z M16,10h1v1h-1z M18,10h1v1h-1z M20,10h1v1h-1z M22,10h1v1h-1z M24,10h1v1h-1z M26,10h1v1h-1z M28,10h1v1h-1z M30,10h1v1h-1z M31,10h1v1h-1z M32,10h1v1h-1z M33,10h1v1h-1z M34,10h1v1h-1z M35,10h1v1h-1z M36,10h1v1h-1z M13,11h1v1h-1z M14,11h1v1h-1z M17,11h1v1h-1z M19,11h1v1h-1z M20,11h1v1h-1z M25,11h1v1h-1z M27,11h1v1h-1z M7,12h1v1h-1z M10,12h1v1h-1z M14,12h1v1h-1z M23,12h1v1h-1z M25,12h1v1h-1z M27,12h1v1h-1z M31,12h1v1h-1z M32,12h1v1h-1z M33,12h1v1h-1z M35,12h1v1h-1z M36,12h1v1h-1z M4,13h1v1h-1z M6,13h1v1h-1z M8,13h1v1h-1z M11,13h1v1h-1z M13,13h1v1h-1z M15,13h1v1h-1z M16,13h1v1h-1z M19,13h1v1h-1z M21,13h1v1h-1z M24,13h1v1h-1z M25,13h1v1h-1z M26,13h1v1h-1z M33,13h1v1h-1z M34,13h1v1h-1z M35,13h1v1h-1z M6,14h1v1h-1z M10,14h1v1h-1z M11,14h1v1h-1z M12,14h1v1h-1z M14,14h1v1h-1z M15,14h1v1h-1z M17,14h1v1h-1z M18,14h1v1h-1z M19,14h1v1h-1z M21,14h1v1h-1z M23,14h1v1h-1z M24,14h1v1h-1z M26,14h1v1h-1z M29,14h1v1h-1z M31,14h1v1h-1z M32,14h1v1h-1z M34,14h1v1h-1z M36,14h1v1h-1z M4,15h1v1h-1z M5,15h1v1h-1z M6,15h1v1h-1z M8,15h1v1h-1z M12,15h1v1h-1z M15,15h1v1h-1z M16,15h1v1h-1z M17,15h1v1h-1z M21,15h1v1h-1z M23,15h1v1h-1z M24,15h1v1h-1z M25,15h1v1h-1z M26,15h1v1h-1z M31,15h1v1h-1z M32,15h1v1h-1z M33,15h1v1h-1z M36,15h1v1h-1z M4,16h1v1h-1z M6,16h1v1h-1z M7,16h1v1h-1z M8,16h1v1h-1z M9,16h1v1h-1z M10,16h1v1h-1z M14,16h1v1h-1z M16,16h1v1h-1z M17,16h1v1h-1z M18,16h1v1h-1z M20,16h1v1h-1z M23,16h1v1h-1z M25,16h1v1h-1z M26,16h1v1h-1z M27,16h1v1h-1z M28,16h1v1h-1z M29,16h1v1h-1z M30,16h1v1h-1z M31,16h1v1h-1z M34,16h1v1h-1z M35,16h1v1h-1z M36,16h1v1h-1z M4,17h1v1h-1z M7,17h1v1h-1z M8,17h1v1h-1z M9,17h1v1h-1z M11,17h1v1h-1z M16,17h1v1h-1z M17,17h1v1h-1z M18,17h1v1h-1z M20,17h1v1h-1z M21,17h1v1h-1z M22,17h1v1h-1z M23,17h1v1h-1z M24,17h1v1h-1z M28,17h1v1h-1z M30,17h1v1h-1z M32,17h1v1h-1z M34,17h1v1h-1z M35,17h1v1h-1z M36,17h1v1h-1z M4,18h1v1h-1z M6,18h1v1h-1z M10,18h1v1h-1z M17,18h1v1h-1z M19,18h1v1h-1z M22,18h1v1h-1z M27,18h1v1h-1z M28,18h1v1h-1z M30,18h1v1h-1z M32,18h1v1h-1z M34,18h1v1h-1z M4,19h1v1h-1z M6,19h1v1h-1z M13,19h1v1h-1z M14,19h1v1h-1z M15,19h1v1h-1z M20,19h1v1h-1z M21,19h1v1h-1z M24,19h1v1h-1z M25,19h1v1h-1z M26,19h1v1h-1z M28,19h1v1h-1z M31,19h1v1h-1z M32,19h1v1h-1z M35,19h1v1h-1z M36,19h1v1h-1z M4,20h1v1h-1z M7,20h1v1h-1z M8,20h1v1h-1z M10,20h1v1h-1z M11,20h1v1h-1z M12,20h1v1h-1z M14,20h1v1h-1z M15,20h1v1h-1z M16,20h1v1h-1z M18,20h1v1h-1z M20,20h1v1h-1z M21,20h1v1h-1z M24,20h1v1h-1z M25,20h1v1h-1z M26,20h1v1h-1z M28,20h1v1h-1z M30,20h1v1h-1z M31,20h1v1h-1z M32,20h1v1h-1z M33,20h1v1h-1z M34,20h1v1h-1z M35,20h1v1h-1z M36,20h1v1h-1z M5,21h1v1h-1z M7,21h1v1h-1z M9,21h1v1h-1z M13,21h1v1h-1z M18,21h1v1h-1z M22,21h1v1h-1z M24,21h1v1h-1z M25,21h1v1h-1z M27,21h1v1h-1z M28,21h1v1h-1z M31,21h1v1h-1z M35,21h1v1h-1z M4,22h1v1h-1z M6,22h1v1h-1z M7,22h1v1h-1z M8,22h1v1h-1z M9,22h1v1h-1z M10,22h1v1h-1z M12,22h1v1h-1z M14,22h1v1h-1z M18,22h1v1h-1z M19,22h1v1h-1z M21,22h1v1h-1z M22,22h1v1h-1z M26,22h1v1h-1z M31,22h1v1h-1z M33,22h1v1h-1z M34,22h1v1h-1z M35,22h1v1h-1z M36,22h1v1h-1z M5,23h1v1h-1z M6,23h1v1h-1z M7,23h1v1h-1z M8,23h1v1h-1z M14,23h1v1h-1z M15,23h1v1h-1z M16,23h1v1h-1z M17,23h1v1h-1z M19,23h1v1h-1z M20,23h1v1h-1z M23,23h1v1h-1z M24,23h1v1h-1z M25,23h1v1h-1z M28,23h1v1h-1z M29,23h1v1h-1z M31,23h1v1h-1z M32,23h1v1h-1z M33,23h1v1h-1z M35,23h1v1h-1z M9,24h1v1h-1z M10,24h1v1h-1z M11,24h1v1h-1z M12,24h1v1h-1z M13,24h1v1h-1z M15,24h1v1h-1z M19,24h1v1h-1z M20,24h1v1h-1z M22,24h1v1h-1z M23,24h1v1h-1z M24,24h1v1h-1z M27,24h1v1h-1z M29,24h1v1h-1z M32,24h1v1h-1z M36,24h1v1h-1z M5,25h1v1h-1z M6,25h1v1h-1z M9,25h1v1h-1z M11,25h1v1h-1z M14,25h1v1h-1z M17,25h1v1h-1z M20,25h1v1h-1z M21,25h1v1h-1z M22,25h1v1h-1z M25,25h1v1h-1z M27,25h1v1h-1z M28,25h1v1h-1z M29,25h1v1h-1z M30,25h1v1h-1z M34,25h1v1h-1z M35,25h1v1h-1z M4,26h1v1h-1z M5,26h1v1h-1z M10,26h1v1h-1z M12,26h1v1h-1z M15,26h1v1h-1z M16,26h1v1h-1z M20,26h1v1h-1z M23,26h1v1h-1z M24,26h1v1h-1z M28,26h1v1h-1z M29,26h1v1h-1z M30,26h1v1h-1z M32,26h1v1h-1z M36,26h1v1h-1z M5,27h1v1h-1z M6,27h1v1h-1z M7,27h1v1h-1z M8,27h1v1h-1z M9,27h1v1h-1z M15,27h1v1h-1z M16,27h1v1h-1z M17,27h1v1h-1z M18,27h1v1h-1z M20,27h1v1h-1z M21,27h1v1h-1z M23,27h1v1h-1z M24,27h1v1h-1z M25,27h1v1h-1z M26,27h1v1h-1z M27,27h1v1h-1z M30,27h1v1h-1z M32,27h1v1h-1z M33,27h1v1h-1z M35,27h1v1h-1z M4,28h1v1h-1z M7,28h1v1h-1z M9,28h1v1h-1z M10,28h1v1h-1z M11,28h1v1h-1z M13,28h1v1h-1z M14,28h1v1h-1z M15,28h1v1h-1z M16,28h1v1h-1z M20,28h1v1h-1z M21,28h1v1h-1z M22,28h1v1h-1z M24,28h1v1h-1z M25,28h1v1h-1z M26,28h1v1h-1z M28,28h1v1h-1z M29,28h1v1h-1z M30,28h1v1h-1z M31,28h1v1h-1z M32,28h1v1h-1z M34,28h1v1h-1z M35,28h1v1h-1z M12,29h1v1h-1z M13,29h1v1h-1z M14,29h1v1h-1z M15,29h1v1h-1z M16,29h1v1h-1z M17,29h1v1h-1z M21,29h1v1h-1z M25,29h1v1h-1z M28,29h1v1h-1z M32,29h1v1h-1z M35,29h1v1h-1z M4,30h1v1h-1z M5,30h1v1h-1z M6,30h1v1h-1z M7,30h1v1h-1z M8,30h1v1h-1z M9,30h1v1h-1z M10,30h1v1h-1z M13,30h1v1h-1z M15,30h1v1h-1z M17,30h1v1h-1z M18,30h1v1h-1z M19,30h1v1h-1z M21,30h1v1h-1z M28,30h1v1h-1z M30,30h1v1h-1z M32,30h1v1h-1z M33,30h1v1h-1z M34,30h1v1h-1z M35,30h1v1h-1z M4,31h1v1h-1z M10,31h1v1h-1z M15,31h1v1h-1z M18,31h1v1h-1z M21,31h1v1h-1z M22,31h1v1h-1z M23,31h1v1h-1z M24,31h1v1h-1z M25,31h1v1h-1z M26,31h1v1h-1z M28,31h1v1h-1z M32,31h1v1h-1z M35,31h1v1h-1z M36,31h1v1h-1z M4,32h1v1h-1z M6,32h1v1h-1z M7,32h1v1h-1z M8,32h1v1h-1z M10,32h1v1h-1z M14,32h1v1h-1z M16,32h1v1h-1z M17,32h1v1h-1z M19,32h1v1h-1z M20,32h1v1h-1z M23,32h1v1h-1z M24,32h1v1h-1z M28,32h1v1h-1z M29,32h1v1h-1z M30,32h1v1h-1z M31,32h1v1h-1z M32,32h1v1h-1z M34,32h1v1h-1z M4,33h1v1h-1z M6,33h1v1h-1z M7,33h1v1h-1z M8,33h1v1h-1z M10,33h1v1h-1z M12,33h1v1h-1z M14,33h1v1h-1z M17,33h1v1h-1z M19,33h1v1h-1z M20,33h1v1h-1z M21,33h1v1h-1z M25,33h1v1h-1z M27,33h1v1h-1z M29,33h1v1h-1z M30,33h1v1h-1z M31,33h1v1h-1z M32,33h1v1h-1z M35,33h1v1h-1z M4,34h1v1h-1z M6,34h1v1h-1z M7,34h1v1h-1z M8,34h1v1h-1z M10,34h1v1h-1z M13,34h1v1h-1z M14,34h1v1h-1z M15,34h1v1h-1z M17,34h1v1h-1z M19,34h1v1h-1z M20,34h1v1h-1z M21,34h1v1h-1z M25,34h1v1h-1z M26,34h1v1h-1z M29,34h1v1h-1z M31,34h1v1h-1z M32,34h1v1h-1z M33,34h1v1h-1z M36,34h1v1h-1z M4,35h1v1h-1z M10,35h1v1h-1z M14,35h1v1h-1z M15,35h1v1h-1z M17,35h1v1h-1z M18,35h1v1h-1z M19,35h1v1h-1z M20,35h1v1h-1z M22,35h1v1h-1z M23,35h1v1h-1z M25,35h1v1h-1z M29,35h1v1h-1z M4,36h1v1h-1z M5,36h1v1h-1z M6,36h1v1h-1z M7,36h1v1h-1z M8,36h1v1h-1z M9,36h1v1h-1z M10,36h1v1h-1z M13,36h1v1h-1z M16,36h1v1h-1z M17,36h1v1h-1z M19,36h1v1h-1z M21,36h1v1h-1z M23,36h1v1h-1z M25,36h1v1h-1z M28,36h1v1h-1z M30,36h1v1h-1z M32,36h1v1h-1z M34,36h1v1h-1z M35,36h1v1h-1z" fill="#000000"/>
</svg>
