<?xml version="1.0" encoding="UTF-8"?>
<!DOCTYPE svg PUBLIC "-//W3C//DTD SVG 1.1//EN" "http://www.w3.org/Graphics/SVG/1.1/DTD/svg11.dtd">
<svg xmlns="http://www.w3.org/2000/svg" version="1.1" viewBox="0 0 41 41" stroke="none">
	<rect width="100%" height="100%" fill="#FFFFFF"/>
	<path d="M4,4h1v1h-1z M5,4h1v1h-1z M6,4h1v1h-1z M7,4h1v1h-1z M8,4h1v1h-1z M9,4h1v1h-1z M10,4h1v1h-1z M12,4h1v1h-1z M14,4h1v1h-1z M16,4h1v1h-1z M18,4h1v1h-1z M19,4h1v1h-1z M20,4h1v1h-1z M22,4h1v1h-1z M30,4h1v1h-1z M31,4h1v1h-1z M32,4h1v1h-1z M33,4h1v1h-1z M34,4h1v1h-1z M35,4h1v1h-1z M36,4h1v1h-1z M4,5h1v1h-1z M10,5h1v1h-1z M12,5h1v1h-1z M14,5h1v1h-1z M18,5h1v1h-1z M20,5h1v1h-1z M21,5h1v1h-1z M25,5h1v1h-1z M27,5h1v1h-1z M28,5h1v1h-1z M30,5h1v1h-1z M36,5h1v1h-1z M4,6h1v1h-1z M6,6h1v1h-1z M7,6h1v1h-1z M8,6h1v1h-1z M10,6h1v1h-1z M13,6h1v1h-1z M14,6h1v1h-1z M15,6h1v1h-1z M16,6h1v1h-1z M17,6h1v1h-1z M18,6h1v1h-1z M19,6h1v1h-1z M23,6h1v1h-1z M24,6h1v1h-1z M27,6h1v1h-1z M30,6h1v1h-1z M32,6h1v1h-1z M33,6h1v1h-1z M34,6h1v1h-1z M36,6h1v1h-1z M4,7h1v1h-1z M6,7h1v1h-1z M7,7h1v1h-1z M8,7h1v1h-1z M10,7h1v1h-1z M12,7h1v1h-1z M14,7h1v1h-1z M15,7h1v1h-1z M16,7h1v1h-1z M18,7h1v1h-1z M19,7h1v1h-1z M21,7h1v1h-1z M25,7h1v1h-1z M26,7h1v1h-1z M27,7h1v1h-1z M30,7h1v1h-1z M32,7h1v1h-1z M33,7h1v1h-1z M34,7h1v1h-1z M36,7h1v1h-1z M4,8h1v1h-1z M6,8h1v1h-1z M7,8h1v1h-1z M8,8h1v1h-1z M10,8h1v1h-1z M12,8h1v1h-1z M14,8h1v1h-1z M18,8h1v1h-1z M19,8h1v1h-1z M20,8h1v1h-1z M22,8h1v1h-1z M23,8h1v1h-1z M24,8h1v1h-1z M26,8h1v1h-1z M30,8h1v1h-1z M32,8h1v1h-1z M33,8h1v1h-1z M34,8h1v1h-1z M36,8h1v1h-1z M4,9h1v1h-1z M10,9h1v1h-1z M12,9h1v1h-1z M14,9h1v1h-1z M17,9h1v1h-1z M19,9h1v1h-1z M22,9h1v1h-1z M28,9h1v1h-1z M30,9h1v1h-1z M36,9h1v1h-1z M4,10h1v1h-1z M5,10h1v1h-1z M6,10h1v1h-1z M7,10h1v1h-1z M8,10h1v1h-1z M9,10h1v1h-1z M10,10h1v1h-1z M12,10h1v1h-1z M14,10h1v1h-1z M16,10h1v1h-1z M18,10h1v1h-1z M20,10h1v1h-1z M22,10h1v1h-1z M24,10h1v1h-1z M26,10h1v1h-1z M28,10h1v1h-1z M30,10h1v1h-1z M31,10h1v1h-1z M32,10h1v1h-1z M33,10h1v1h-1z M34,10h1v1h-1z M35,10h1v1h-1z M36,10h1v1h-1z M15,11h1v1h-1z M16,11h1v1h-1z M19,11h1v1h-1z M20,11h1v1h-1z M21,11h1v1h-1z M22,11h1v1h-1z M23,11h1v1h-1z M25,11h1v1h-1z M28,11h1v1h-1z M7,12h1v1h-1z M10,12h1v1h-1z M14,12h1v1h-1z M16,12h1v1h-1z M17,12h1v1h-1z M18,12h1v1h-1z M21,12h1v1h-1z M23,12h1v1h-1z M31,12h1v1h-1z M32,12h1v1h-1z M33,12h1v1h-1z M35,12h1v1h-1z M36,12h1v1h-1z M5,13h1v1h-1z M6,13h1v1h-1z M7,13h1v1h-1z M9,13h1v1h-1z M11,13h1v1h-1z M13,13h1v1h-1z M18,13h1v1h-1z M20,13h1v1h-1z M21,13h1v1h-1z M22,13h1v1h-1z M23,13h1v1h-1z M24,13h1v1h-1z M25,13h1v1h-1z M26,13h1v1h-1z M28,13h1v1h-1z M30,13h1v1h-1z M31,13h1v1h-1z M33,13h1v1h-1z M34,13h1v1h-1z M36,13h1v1h-1z M5,14h1v1h-1z M7,14h1v1h-1z M8,14h1v1h-1z M10,14h1v1h-1z M11,14h1v1h-1z M12,14h1v1h-1z M13,14h1v1h-1z M14,14h1v1h-1z M18,14h1v1h-1z M19,14h1v1h-1z M20,14h1v1h-1z M21,14h1v1h-1z M23,14h1v1h-1z M24,14h1v1h-1z M25,14h1v1h-1z M26,14h1v1h-1z M28,14h1v1h-1z M32,14h1v1h-1z M34,14h1v1h-1z M35,14h1v1h-1z M36,14h1v1h-1z M4,15h1v1h-1z M5,15h1v1h-1z M11,15h1v1h-1z M13,15h1v1h-1z M14,15h1v1h-1z M16,15h1v1h-1z M23,15h1v1h-1z M24,15h1v1h-1z M25,15h1v1h-1z M28,15h1v1h-1z M29,15h1v1h-1z M30,15h1v1h-1z M32,15h1v1h-1z M33,15h1v1h-1z M35,15h1v1h-1z M4,16h1v1h-1z M5,16h1v1h-1z M6,16h1v1h-1z M7,16h1v1h-1z M8,16h1v1h-1z M9,16h1v1h-1z M10,16h1v1h-1z M11,16h1v1h-1z M13,16h1v1h-1z M18,16h1v1h-1z M20,16h1v1h-1z M21,16h1v1h-1z M26,16h1v1h-1z M29,16h1v1h-1z M30,16h1v1h-1z M32,16h1v1h-1z M33,16h1v1h-1z M34,16h1v1h-1z M36,16h1v1h-1z M5,17h1v1h-1z M6,17h1v1h-1z M8,17h1v1h-1z M9,17h1v1h-1z M11,17h1v1h-1z M14,17h1v1h-1z M16,17h1v1h-1z M17,17h1v1h-1z M18,17h1v1h-1z M20,17h1v1h-1z M21,17h1v1h-1z M22,17h1v1h-1z M24,17h1v1h-1z M25,17h1v1h-1z M26,17h1v1h-1z M27,17h1v1h-1z M28,17h1v1h-1z M29,17h1v1h-1z M30,17h1v1h-1z M32,17h1v1h-1z M33,17h1v1h-1z M34,17h1v1h-1z M35,17h1v1h-1z M36,17h1v1h-1z M4,18h1v1h-1z M6,18h1v1h-1z M7,18h1v1h-1z M10,18h1v1h-1z M11,18h1v1h-1z M13,18h1v1h-1z M14,18h1v1h-1z M15,18h1v1h-1z M18,18h1v1h-1z M19,18h1v1h-1z M20,18h1v1h-1z M22,18h1v1h-1z M23,18h1v1h-1z M24,18h1v1h-1z M25,18h1v1h-1z M27,18h1v1h-1z M28,18h1v1h-1z M29,18h1v1h-1z M31,18h1v1h-1z M33,18h1v1h-1z M4,19h1v1h-1z M6,19h1v1h-1z M8,19h1v1h-1z M11,19h1v1h-1z M12,19h1v1h-1z M13,19h1v1h-1z M14,19h1v1h-1z M15,19h1v1h-1z M23,19h1v1h-1z M24,19h1v1h-1z M25,19h1v1h-1z M27,19h1v1h-1z M4,20h1v1h-1z M7,20h1v1h-1z M8,20h1v1h-1z M10,20h1v1h-1z M11,20h1v1h-1z M12,20h1v1h-1z M13,20h1v1h-1z M14,20h1v1h-1z M15,20h1v1h-1z M16,20h1v1h-1z M17,20h1v1h-1z M21,20h1v1h-1z M23,20h1v1h-1z M24,20h1v1h-1z M26,20h1v1h-1z M27,20h1v1h-1z M28,20h1v1h-1z M30,20h1v1h-1z M31,20h1v1h-1z M33,20h1v1h-1z M34,20h1v1h-1z M35,20h1v1h-1z M36,20h1v1h-1z M5,21h1v1h-1z M7,21h1v1h-1z M8,21h1v1h-1z M11,21h1v1h-1z M12,21h1v1h-1z M15,21h1v1h-1z M18,21h1v1h-1z M21,21h1v1h-1z M23,21h1v1h-1z M25,21h1v1h-1z M28,21h1v1h-1z M29,21h1v1h-1z M30,21h1v1h-1z M9,22h1v1h-1z M10,22h1v1h-1z M11,22h1v1h-1z M13,22h1v1h-1z M15,22h1v1h-1z M16,22h1v1h-1z M18,22h1v1h-1z M19,22h1v1h-1z M20,22h1v1h-1z M24,22h1v1h-1z M26,22h1v1h-1z M28,22h1v1h-1z M33,22h1v1h-1z M34,22h1v1h-1z M35,22h1v1h-1z M36,22h1v1h-1z M5,23h1v1h-1z M6,23h1v1h-1z M7,23h1v1h-1z M13,23h1v1h-1z M15,23h1v1h-1z M20,23h1v1h-1z M22,23h1v1h-1z M23,23h1v1h-1z M25,23h1v1h-1z M27,23h1v1h-1z M30,23h1v1h-1z M31,23h1v1h-1z M32,23h1v1h-1z M4,24h1v1h-1z M7,24h1v1h-1z M9,24h1v1h-1z M10,24h1v1h-1z M12,24h1v1h-1z M16,24h1v1h-1z M17,24h1v1h-1z M20,24h1v1h-1z M21,24h1v1h-1z M25,24h1v1h-1z M27,24h1v1h-1z M28,24h1v1h-1z M29,24h1v1h-1z M32,24h1v1h-1z M33,24h1v1h-1z M35,24h1v1h-1z M36,24h1v1h-1z M6,25h1v1h-1z M8,25h1v1h-1z M9,25h1v1h-1z M11,25h1v1h-1z M15,25h1v1h-1z M16,25h1v1h-1z M18,25h1v1h-1z M19,25h1v1h-1z M20,25h1v1h-1z M21,25h1v1h-1z M24,25h1v1h-1z M28,25h1v1h-1z M29,25h1v1h-1z M33,25h1v1h-1z M36,25h1v1h-1z M4,26h1v1h-1z M5,26h1v1h-1z M7,26h1v1h-1z M9,26h1v1h-1z M10,26h1v1h-1z M17,26h1v1h-1z M18,26h1v1h-1z M20,26h1v1h-1z M21,26h1v1h-1z M24,26h1v1h-1z M28,26h1v1h-1z M29,26h1v1h-1z M31,26h1v1h-1z M32,26h1v1h-1z M33,26h1v1h-1z M35,26h1v1h-1z M36,26h1v1h-1z M5,27h1v1h-1z M9,27h1v1h-1z M11,27h1v1h-1z M12,27h1v1h-1z M14,27h1v1h-1z M17,27h1v1h-1z M23,27h1v1h-1z M25,27h1v1h-1z M27,27h1v1h-1z M29,27h1v1h-1z M30,27h1v1h-1z M33,27h1v1h-1z M4,28h1v1h-1z M6,28h1v1h-1z M7,28h1v1h-1z M8,28h1v1h-1z M10,28h1v1h-1z M11,28h1v1h-1z M12,28h1v1h-1z M15,28h1v1h-1z M16,28h1v1h-1z M18,28h1v1h-1z M20,28h1v1h-1z M22,28h1v1h-1z M23,28h1v1h-1z M24,28h1v1h-1z M28,28h1v1h-1z M29,28h1v1h-1z M30,28h1v1h-1z M31,28h1v1h-1z M32,28h1v1h-1z M12,29h1v1h-1z M16,29h1v1h-1z M17,29h1v1h-1z M19,29h1v1h-1z M20,29h1v1h-1z M21,29h1v1h-1z M24,29h1v1h-1z M26,29h1v1h-1z M27,29h1v1h-1z M28,29h1v1h-1z M32,29h1v1h-1z M35,29h1v1h-1z M4,30h1v1h-1z M5,30h1v1h-1z M6,30h1v1h-1z M7,30h1v1h-1z M8,30h1v1h-1z M9,30h1v1h-1z M10,30h1v1h-1z M13,30h1v1h-1z M17,30h1v1h-1z M18,30h1v1h-1z M21,30h1v1h-1z M24,30h1v1h-1z M25,30h1v1h-1z M28,30h1v1h-1z M30,30h1v1h-1z M32,30h1v1h-1z M34,30h1v1h-1z M35,30h1v1h-1z M4,31h1v1h-1z M10,31h1v1h-1z M13,31h1v1h-1z M15,31h1v1h-1z M18,31h1v1h-1z M20,31h1v1h-1z M21,31h1v1h-1z M23,31h1v1h-1z M28,31h1v1h-1z M32,31h1v1h-1z M4,32h1v1h-1z M6,32h1v1h-1z M7,32h1v1h-1z M8,32h1v1h-1z M10,32h1v1h-1z M13,32h1v1h-1z M14,32h1v1h-1z M15,32h1v1h-1z M16,32h1v1h-1z M18,32h1v1h-1z M20,32h1v1h-1z M24,32h1v1h-1z M26,32h1v1h-1z M28,32h1v1h-1z M29,32h1v1h-1z M30,32h1v1h-1z M31,32h1v1h-1z M32,32h1v1h-1z M4,33h1v1h-1z M6,33h1v1h-1z M7,33h1v1h-1z M8,33h1v1h-1z M10,33h1v1h-1z M12,33h1v1h-1z M13,33h1v1h-1z M14,33h1v1h-1z M16,33h1v1h-1z M18,33h1v1h-1z M20,33h1v1h-1z M25,33h1v1h-1z M28,33h1v1h-1z M30,33h1v1h-1z M31,33h1v1h-1z M33,33h1v1h-1z M35,33h1v1h-1z M4,34h1v1h-1z M6,34h1v1h-1z M7,34h1v1h-1z M8,34h1v1h-1z M10,34h1v1h-1z M19,34h1v1h-1z M22,34h1v1h-1z M24,34h1v1h-1z M28,34h1v1h-1z M29,34h1v1h-1z M31,34h1v1h-1z M32,34h1v1h-1z M33,34h1v1h-1z M36,34h1v1h-1z M4,35h1v1h-1z M10,35h1v1h-1z M14,35h1v1h-1z M15,35h1v1h-1z M16,35h1v1h-1z M18,35h1v1h-1z M19,35h1v1h-1z M20,35h1v1h-1z M21,35h1v1h-1z M22,35h1v1h-1z M25,35h1v1h-1z M26,35h1v1h-1z M31,35h1v1h-1z M4,36h1v1h-1z M5,36h1v1h-1z M6,36h1v1h-1z M7,36h1v1h-1z M8,36h1v1h-1z M9,36h1v1h-1z M10,36h1v1h-1z M13,36h1v1h-1z M15,36h1v1h-1z M18,36h1v1h-1z M19,36h1v1h-1z M20,36h1v1h-1z M21,36h1v1h-1z M22,36h1v1h-1z M23,36h1v1h-1z M28,36h1v1h-1z M29,36h1v1h-1z M30,36h1v1h-1z M31,36h1v1h-1z M35,36h1v1h-1z" fill="#000000"/>
</svg>
